<svg width="23" height="27" viewBox="0 0 23 27" fill="none" xmlns="http://www.w3.org/2000/svg">
<path d="M5.85938 0C6.9375 0 7.91797 0.265625 8.80078 0.796875C9.69141 1.32031 10.3984 2.02734 10.9219 2.91797C11.4453 3.80078 11.707 4.78125 11.707 5.85938C11.707 5.92969 11.707 5.99219 11.707 6.04688C11.707 6.10156 11.7031 6.15234 11.6953 6.19922C11.6797 6.40234 11.5898 6.56641 11.4258 6.69141C11.2695 6.80859 11.1016 6.86719 10.9219 6.86719C10.7344 6.86719 10.5625 6.80859 10.4062 6.69141C10.2578 6.56641 10.1797 6.37109 10.1719 6.10547C10.1719 6.05078 10.1719 6.00391 10.1719 5.96484C10.1719 5.92578 10.1719 5.89063 10.1719 5.85938C10.1719 5.0625 9.97656 4.33984 9.58594 3.69141C9.20312 3.03516 8.68359 2.51172 8.02734 2.12109C7.37891 1.73047 6.65625 1.53516 5.85938 1.53516C5.0625 1.53516 4.33594 1.73047 3.67969 2.12109C3.02344 2.51172 2.5 3.03516 2.10938 3.69141C1.72656 4.33984 1.53516 5.0625 1.53516 5.85938C1.53516 6.38281 1.62109 6.88281 1.79297 7.35938C1.97266 7.82812 2.21875 8.25 2.53125 8.625C2.69531 8.82031 2.76172 9.01562 2.73047 9.21094C2.70703 9.40625 2.62109 9.57031 2.47266 9.70312C2.32422 9.82812 2.15234 9.89062 1.95703 9.89062C1.84766 9.89062 1.73438 9.86328 1.61719 9.80859C1.50781 9.75391 1.40234 9.66797 1.30078 9.55078C0.894531 9.04297 0.574219 8.47656 0.339844 7.85156C0.113281 7.21875 0 6.55469 0 5.85938C0 5.04688 0.152344 4.28906 0.457031 3.58594C0.761719 2.875 1.17969 2.25391 1.71094 1.72266C2.25 1.18359 2.875 0.761719 3.58594 0.457031C4.29688 0.152344 5.05469 0 5.85938 0ZM16.8281 25.7461C14.8828 26.457 13.0469 26.5352 11.3203 25.9805C9.59375 25.4336 7.98438 24.2578 6.49219 22.4531L2.56641 17.707C2.44141 17.5508 2.32031 17.375 2.20312 17.1797C2.09375 16.9844 2.01172 16.8008 1.95703 16.6289C1.73047 16.0273 1.75781 15.4883 2.03906 15.0117C2.32812 14.5352 2.74219 14.2031 3.28125 14.0156C3.67188 13.875 4.0625 13.8594 4.45312 13.9688C4.84375 14.0703 5.21094 14.3047 5.55469 14.6719L6.92578 16.1602C6.96484 16.207 7.00391 16.2227 7.04297 16.207C7.09766 16.1836 7.11719 16.1406 7.10156 16.0781L3.75 6.89062C3.5 6.19531 3.50781 5.5625 3.77344 4.99219C4.03906 4.41406 4.5 4.00391 5.15625 3.76172C5.80469 3.52734 6.41406 3.54688 6.98438 3.82031C7.55469 4.09375 7.96875 4.57813 8.22656 5.27344L9.55078 8.92969C9.80078 8.75781 10.0469 8.625 10.2891 8.53125C10.7734 8.35938 11.2344 8.33984 11.6719 8.47266C12.1094 8.59766 12.4766 8.85547 12.7734 9.24609C13.0703 9.01953 13.375 8.85156 13.6875 8.74219C14.1484 8.57031 14.582 8.54297 14.9883 8.66016C15.3945 8.76953 15.7344 9.00391 16.0078 9.36328C17.0312 9.00391 17.957 9.07422 18.7852 9.57422C19.6133 10.0742 20.2578 10.9609 20.7188 12.2344L21.5977 14.6367C22.2227 16.3555 22.4336 17.9531 22.2305 19.4297C22.0352 20.8984 21.4727 22.1797 20.543 23.2734C19.6211 24.3594 18.3828 25.1836 16.8281 25.7461ZM16.3359 24.2109C17.6328 23.7344 18.6484 23.0547 19.3828 22.1719C20.125 21.2891 20.5586 20.2422 20.6836 19.0312C20.8164 17.8125 20.6133 16.4648 20.0742 14.9883L19.3477 12.9844C19.0195 12.1094 18.6367 11.4805 18.1992 11.0977C17.7617 10.707 17.2969 10.6016 16.8047 10.7812L17.2617 12.0469C17.332 12.25 17.3203 12.4414 17.2266 12.6211C17.1406 12.793 17.0078 12.9102 16.8281 12.9727C16.6406 13.043 16.4492 13.043 16.2539 12.9727C16.0664 12.9023 15.9375 12.7656 15.8672 12.5625L15.2461 10.8398C15.1367 10.5508 14.9727 10.3516 14.7539 10.2422C14.5352 10.125 14.2891 10.1172 14.0156 10.2188C13.7812 10.3125 13.582 10.4414 13.418 10.6055L14.168 12.7031C14.2461 12.8984 14.2383 13.0859 14.1445 13.2656C14.0508 13.4375 13.9102 13.5586 13.7227 13.6289C13.543 13.6914 13.3555 13.6875 13.1602 13.6172C12.9727 13.5391 12.8438 13.3984 12.7734 13.1953L11.8359 10.6406C11.7344 10.3516 11.5742 10.1523 11.3555 10.043C11.1367 9.93359 10.8945 9.92969 10.6289 10.0312C10.5117 10.0625 10.3984 10.1172 10.2891 10.1953C10.1875 10.2656 10.0938 10.3359 10.0078 10.4062L11.0859 13.3359C11.1562 13.5312 11.1445 13.7188 11.0508 13.8984C10.9648 14.0781 10.8281 14.1992 10.6406 14.2617C10.4531 14.3398 10.2656 14.3398 10.0781 14.2617C9.89062 14.1836 9.76172 14.0469 9.69141 13.8516L6.71484 5.70703C6.63672 5.46484 6.5 5.29688 6.30469 5.20312C6.10938 5.10938 5.89844 5.10156 5.67188 5.17969C5.44531 5.26562 5.28516 5.41016 5.19141 5.61328C5.09766 5.81641 5.09375 6.03125 5.17969 6.25781L9.33984 17.6719C9.43359 17.9297 9.43359 18.168 9.33984 18.3867C9.25391 18.5977 9.09766 18.7461 8.87109 18.832C8.66797 18.9023 8.46484 18.918 8.26172 18.8789C8.05859 18.832 7.84375 18.6914 7.61719 18.457L4.91016 15.6562C4.59766 15.3203 4.27734 15.2148 3.94922 15.3398C3.72266 15.418 3.56641 15.5508 3.48047 15.7383C3.40234 15.9258 3.39844 16.1172 3.46875 16.3125C3.53125 16.4766 3.625 16.6289 3.75 16.7695L7.66406 21.4922C9.02344 23.1328 10.4219 24.1367 11.8594 24.5039C13.3047 24.8711 14.7969 24.7734 16.3359 24.2109Z" fill="black"/>
</svg>
