<svg width="34" height="34" viewBox="0 0 34 34" fill="none" xmlns="http://www.w3.org/2000/svg">
<g clip-path="url(#clip0_196_136)">
<path d="M11.7031 2.64453C12.7812 2.64453 13.7617 2.91016 14.6445 3.44141C15.5352 3.96484 16.2422 4.67188 16.7656 5.5625C17.2891 6.44531 17.5508 7.42578 17.5508 8.50391C17.5508 8.57422 17.5508 8.63672 17.5508 8.69141C17.5508 8.74609 17.5469 8.79688 17.5391 8.84375C17.5234 9.04688 17.4336 9.21094 17.2695 9.33594C17.1133 9.45312 16.9453 9.51172 16.7656 9.51172C16.5781 9.51172 16.4062 9.45312 16.25 9.33594C16.1016 9.21094 16.0234 9.01562 16.0156 8.75C16.0156 8.69531 16.0156 8.64844 16.0156 8.60938C16.0156 8.57031 16.0156 8.53516 16.0156 8.50391C16.0156 7.70703 15.8203 6.98437 15.4297 6.33594C15.0469 5.67969 14.5273 5.15625 13.8711 4.76562C13.2227 4.375 12.5 4.17969 11.7031 4.17969C10.9062 4.17969 10.1797 4.375 9.52344 4.76562C8.86719 5.15625 8.34375 5.67969 7.95312 6.33594C7.57031 6.98437 7.37891 7.70703 7.37891 8.50391C7.37891 9.02734 7.46484 9.52734 7.63672 10.0039C7.81641 10.4727 8.0625 10.8945 8.375 11.2695C8.53906 11.4648 8.60547 11.6602 8.57422 11.8555C8.55078 12.0508 8.46484 12.2148 8.31641 12.3477C8.16797 12.4727 7.99609 12.5352 7.80078 12.5352C7.69141 12.5352 7.57812 12.5078 7.46094 12.4531C7.35156 12.3984 7.24609 12.3125 7.14453 12.1953C6.73828 11.6875 6.41797 11.1211 6.18359 10.4961C5.95703 9.86328 5.84375 9.19922 5.84375 8.50391C5.84375 7.69141 5.99609 6.93359 6.30078 6.23047C6.60547 5.51953 7.02344 4.89844 7.55469 4.36719C8.09375 3.82812 8.71875 3.40625 9.42969 3.10156C10.1406 2.79688 10.8984 2.64453 11.7031 2.64453ZM22.6719 28.3906C20.7266 29.1016 18.8906 29.1797 17.1641 28.625C15.4375 28.0781 13.8281 26.9023 12.3359 25.0977L8.41016 20.3516C8.28516 20.1953 8.16406 20.0195 8.04688 19.8242C7.9375 19.6289 7.85547 19.4453 7.80078 19.2734C7.57422 18.6719 7.60156 18.1328 7.88281 17.6562C8.17188 17.1797 8.58594 16.8477 9.125 16.6602C9.51562 16.5195 9.90625 16.5039 10.2969 16.6133C10.6875 16.7148 11.0547 16.9492 11.3984 17.3164L12.7695 18.8047C12.8086 18.8516 12.8477 18.8672 12.8867 18.8516C12.9414 18.8281 12.9609 18.7852 12.9453 18.7227L9.59375 9.53516C9.34375 8.83984 9.35156 8.20703 9.61719 7.63672C9.88281 7.05859 10.3438 6.64844 11 6.40625C11.6484 6.17188 12.2578 6.19141 12.8281 6.46484C13.3984 6.73828 13.8125 7.22266 14.0703 7.91797L15.3945 11.5742C15.6445 11.4023 15.8906 11.2695 16.1328 11.1758C16.6172 11.0039 17.0781 10.9844 17.5156 11.1172C17.9531 11.2422 18.3203 11.5 18.6172 11.8906C18.9141 11.6641 19.2188 11.4961 19.5312 11.3867C19.9922 11.2148 20.4258 11.1875 20.832 11.3047C21.2383 11.4141 21.5781 11.6484 21.8516 12.0078C22.875 11.6484 23.8008 11.7188 24.6289 12.2188C25.457 12.7188 26.1016 13.6055 26.5625 14.8789L27.4414 17.2812C28.0664 19 28.2773 20.5977 28.0742 22.0742C27.8789 23.543 27.3164 24.8242 26.3867 25.918C25.4648 27.0039 24.2266 27.8281 22.6719 28.3906ZM22.1797 26.8555C23.4766 26.3789 24.4922 25.6992 25.2266 24.8164C25.9688 23.9336 26.4023 22.8867 26.5273 21.6758C26.6602 20.457 26.457 19.1094 25.918 17.6328L25.1914 15.6289C24.8633 14.7539 24.4805 14.125 24.043 13.7422C23.6055 13.3516 23.1406 13.2461 22.6484 13.4258L23.1055 14.6914C23.1758 14.8945 23.1641 15.0859 23.0703 15.2656C22.9844 15.4375 22.8516 15.5547 22.6719 15.6172C22.4844 15.6875 22.293 15.6875 22.0977 15.6172C21.9102 15.5469 21.7812 15.4102 21.7109 15.207L21.0898 13.4844C20.9805 13.1953 20.8164 12.9961 20.5977 12.8867C20.3789 12.7695 20.1328 12.7617 19.8594 12.8633C19.625 12.957 19.4258 13.0859 19.2617 13.25L20.0117 15.3477C20.0898 15.543 20.082 15.7305 19.9883 15.9102C19.8945 16.082 19.7539 16.2031 19.5664 16.2734C19.3867 16.3359 19.1992 16.332 19.0039 16.2617C18.8164 16.1836 18.6875 16.043 18.6172 15.8398L17.6797 13.2852C17.5781 12.9961 17.418 12.7969 17.1992 12.6875C16.9805 12.5781 16.7383 12.5742 16.4727 12.6758C16.3555 12.707 16.2422 12.7617 16.1328 12.8398C16.0312 12.9102 15.9375 12.9805 15.8516 13.0508L16.9297 15.9805C17 16.1758 16.9883 16.3633 16.8945 16.543C16.8086 16.7227 16.6719 16.8438 16.4844 16.9062C16.2969 16.9844 16.1094 16.9844 15.9219 16.9062C15.7344 16.8281 15.6055 16.6914 15.5352 16.4961L12.5586 8.35156C12.4805 8.10938 12.3438 7.94141 12.1484 7.84766C11.9531 7.75391 11.7422 7.74609 11.5156 7.82422C11.2891 7.91016 11.1289 8.05469 11.0352 8.25781C10.9414 8.46094 10.9375 8.67578 11.0234 8.90234L15.1836 20.3164C15.2773 20.5742 15.2773 20.8125 15.1836 21.0312C15.0977 21.2422 14.9414 21.3906 14.7148 21.4766C14.5117 21.5469 14.3086 21.5625 14.1055 21.5234C13.9023 21.4766 13.6875 21.3359 13.4609 21.1016L10.7539 18.3008C10.4414 17.9648 10.1211 17.8594 9.79297 17.9844C9.56641 18.0625 9.41016 18.1953 9.32422 18.3828C9.24609 18.5703 9.24219 18.7617 9.3125 18.957C9.375 19.1211 9.46875 19.2734 9.59375 19.4141L13.5078 24.1367C14.8672 25.7773 16.2656 26.7812 17.7031 27.1484C19.1484 27.5156 20.6406 27.418 22.1797 26.8555Z" fill="black"/>
</g>
<defs>
<clipPath id="clip0_196_136">
<rect width="34" height="34" fill="white"/>
</clipPath>
</defs>
</svg>
