<svg width="21" height="26" viewBox="0 0 21 26" fill="none" xmlns="http://www.w3.org/2000/svg">
<path d="M10.3477 25.1719C8.91797 25.1719 7.57812 24.9023 6.32812 24.3633C5.07812 23.832 3.97656 23.0938 3.02344 22.1484C2.07812 21.1953 1.33594 20.0938 0.796875 18.8438C0.265625 17.5938 0 16.2539 0 14.8242C0 13.3945 0.265625 12.0547 0.796875 10.8047C1.33594 9.55469 2.07812 8.45703 3.02344 7.51172C3.97656 6.55859 5.07812 5.81641 6.32812 5.28516C7.57812 4.74609 8.91797 4.47656 10.3477 4.47656C10.9727 4.47656 11.582 4.53125 12.1758 4.64062C12.7695 4.75 13.3359 4.90625 13.875 5.10938C14.0391 5.17187 14.207 5.26953 14.3789 5.40234C14.5508 5.53516 14.6328 5.75 14.625 6.04688C14.625 6.28906 14.5547 6.48828 14.4141 6.64453C14.2812 6.79297 14.1133 6.89062 13.9102 6.9375C13.707 6.97656 13.5078 6.95703 13.3125 6.87891C12.8438 6.70703 12.3633 6.57812 11.8711 6.49219C11.3789 6.39844 10.8711 6.35156 10.3477 6.35156C9.18359 6.35156 8.08984 6.57031 7.06641 7.00781C6.04297 7.44531 5.14062 8.05469 4.35938 8.83594C3.58594 9.60938 2.98047 10.5078 2.54297 11.5312C2.10547 12.5547 1.88672 13.6484 1.88672 14.8125C1.88672 15.9844 2.10547 17.082 2.54297 18.1055C2.98047 19.1289 3.58594 20.0273 4.35938 20.8008C5.14062 21.5742 6.04297 22.1797 7.06641 22.6172C8.08984 23.0547 9.18359 23.2734 10.3477 23.2734C11.5195 23.2734 12.6172 23.0547 13.6406 22.6172C14.6641 22.1797 15.5625 21.5742 16.3359 20.8008C17.1094 20.0273 17.7148 19.1289 18.1523 18.1055C18.5898 17.082 18.8086 15.9844 18.8086 14.8125C18.8086 14.5547 18.9023 14.3359 19.0898 14.1562C19.2773 13.9688 19.5 13.875 19.7578 13.875C20.0156 13.875 20.2344 13.9688 20.4141 14.1562C20.6016 14.3359 20.6953 14.5547 20.6953 14.8125C20.6953 16.25 20.4258 17.5938 19.8867 18.8438C19.3555 20.0938 18.6133 21.1953 17.6602 22.1484C16.7148 23.0938 15.6172 23.832 14.3672 24.3633C13.1172 24.9023 11.7773 25.1719 10.3477 25.1719ZM13.5234 5.88281L9.25781 1.64062C9.16406 1.54688 9.09766 1.44141 9.05859 1.32422C9.01953 1.20703 9 1.08594 9 0.960938C9 0.695312 9.08594 0.46875 9.25781 0.28125C9.4375 0.09375 9.65625 0 9.91406 0C10.1797 0 10.4102 0.0976562 10.6055 0.292969L15.4219 5.19141C15.625 5.38672 15.7266 5.62109 15.7266 5.89453C15.7266 6.02734 15.7031 6.15234 15.6562 6.26953C15.6094 6.38672 15.5312 6.49609 15.4219 6.59766L10.5938 11.4492C10.4062 11.6289 10.1797 11.7188 9.91406 11.7188C9.65625 11.7188 9.4375 11.6289 9.25781 11.4492C9.08594 11.2695 9 11.043 9 10.7695C9 10.6523 9.01953 10.5352 9.05859 10.418C9.09766 10.3008 9.16797 10.1992 9.26953 10.1133L13.5234 5.88281Z" fill="black"/>
</svg>
