<svg width="34" height="34" viewBox="0 0 34 34" fill="none" xmlns="http://www.w3.org/2000/svg">
<g clip-path="url(#clip0_196_135)">
<path d="M17 26.2949C15.8086 26.2949 14.6921 26.0703 13.6504 25.6211C12.6087 25.1784 11.6908 24.5632 10.8965 23.7754C10.1087 22.9811 9.49023 22.0632 9.04102 21.0215C8.59831 19.9798 8.37695 18.8633 8.37695 17.6719C8.37695 16.4805 8.59831 15.3639 9.04102 14.3223C9.49023 13.2806 10.1087 12.3659 10.8965 11.5781C11.6908 10.7839 12.6087 10.1654 13.6504 9.72266C14.6921 9.27344 15.8086 9.04883 17 9.04883C17.5208 9.04883 18.0286 9.0944 18.5234 9.18555C19.0182 9.27669 19.4902 9.4069 19.9395 9.57617C20.0762 9.62826 20.2161 9.70964 20.3594 9.82031C20.5026 9.93099 20.571 10.11 20.5645 10.3574C20.5645 10.5592 20.5059 10.7253 20.3887 10.8555C20.278 10.9792 20.138 11.0605 19.9688 11.0996C19.7995 11.1322 19.6335 11.1159 19.4707 11.0508C19.0801 10.9076 18.6797 10.8001 18.2695 10.7285C17.8594 10.6504 17.4362 10.6113 17 10.6113C16.0299 10.6113 15.1185 10.7936 14.2656 11.1582C13.4128 11.5228 12.6608 12.0306 12.0098 12.6816C11.3652 13.3262 10.8607 14.0749 10.4961 14.9277C10.1315 15.7806 9.94922 16.6921 9.94922 17.6621C9.94922 18.6387 10.1315 19.5534 10.4961 20.4062C10.8607 21.2591 11.3652 22.0078 12.0098 22.6523C12.6608 23.2969 13.4128 23.8014 14.2656 24.166C15.1185 24.5306 16.0299 24.7129 17 24.7129C17.9766 24.7129 18.8913 24.5306 19.7441 24.166C20.597 23.8014 21.3457 23.2969 21.9902 22.6523C22.6348 22.0078 23.1393 21.2591 23.5039 20.4062C23.8685 19.5534 24.0508 18.6387 24.0508 17.6621C24.0508 17.4473 24.1289 17.265 24.2852 17.1152C24.4414 16.959 24.627 16.8809 24.8418 16.8809C25.0566 16.8809 25.2389 16.959 25.3887 17.1152C25.5449 17.265 25.623 17.4473 25.623 17.6621C25.623 18.86 25.3984 19.9798 24.9492 21.0215C24.5065 22.0632 23.888 22.9811 23.0938 23.7754C22.306 24.5632 21.3913 25.1784 20.3496 25.6211C19.3079 26.0703 18.1914 26.2949 17 26.2949ZM19.6465 10.2207L16.0918 6.68555C16.0137 6.60742 15.9583 6.51953 15.9258 6.42188C15.8932 6.32422 15.877 6.22331 15.877 6.11914C15.877 5.89779 15.9486 5.70898 16.0918 5.55273C16.2415 5.39648 16.4238 5.31836 16.6387 5.31836C16.86 5.31836 17.0521 5.39974 17.2148 5.5625L21.2285 9.64453C21.3978 9.80729 21.4824 10.0026 21.4824 10.2305C21.4824 10.3411 21.4629 10.4453 21.4238 10.543C21.3848 10.6406 21.3197 10.7318 21.2285 10.8164L17.2051 14.8594C17.0488 15.0091 16.86 15.084 16.6387 15.084C16.4238 15.084 16.2415 15.0091 16.0918 14.8594C15.9486 14.7096 15.877 14.5208 15.877 14.293C15.877 14.1953 15.8932 14.0977 15.9258 14C15.9583 13.9023 16.0169 13.8177 16.1016 13.7461L19.6465 10.2207Z" fill="black"/>
</g>
<defs>
<clipPath id="clip0_196_135">
<rect width="34" height="34" fill="white"/>
</clipPath>
</defs>
</svg>
