<svg width="18" height="21" viewBox="0 0 18 21" fill="none" xmlns="http://www.w3.org/2000/svg">
<path d="M8.62305 20.9766C7.43164 20.9766 6.3151 20.752 5.27344 20.3027C4.23177 19.86 3.3138 19.2448 2.51953 18.457C1.73177 17.6628 1.11328 16.7448 0.664062 15.7031C0.221354 14.6615 0 13.5449 0 12.3535C0 11.1621 0.221354 10.0456 0.664062 9.00391C1.11328 7.96224 1.73177 7.04753 2.51953 6.25977C3.3138 5.46549 4.23177 4.84701 5.27344 4.4043C6.3151 3.95508 7.43164 3.73047 8.62305 3.73047C9.14388 3.73047 9.65169 3.77604 10.1465 3.86719C10.6413 3.95833 11.1133 4.08854 11.5625 4.25781C11.6992 4.3099 11.8392 4.39128 11.9824 4.50195C12.1257 4.61263 12.194 4.79167 12.1875 5.03906C12.1875 5.24089 12.1289 5.4069 12.0117 5.53711C11.901 5.66081 11.7611 5.74219 11.5918 5.78125C11.4225 5.8138 11.2565 5.79753 11.0938 5.73242C10.7031 5.58919 10.3027 5.48177 9.89258 5.41016C9.48242 5.33203 9.05924 5.29297 8.62305 5.29297C7.65299 5.29297 6.74154 5.47526 5.88867 5.83984C5.03581 6.20443 4.28385 6.71224 3.63281 7.36328C2.98828 8.00781 2.48372 8.75651 2.11914 9.60938C1.75456 10.4622 1.57227 11.3737 1.57227 12.3438C1.57227 13.3203 1.75456 14.235 2.11914 15.0879C2.48372 15.9408 2.98828 16.6895 3.63281 17.334C4.28385 17.9785 5.03581 18.4831 5.88867 18.8477C6.74154 19.2122 7.65299 19.3945 8.62305 19.3945C9.59961 19.3945 10.5143 19.2122 11.3672 18.8477C12.2201 18.4831 12.9688 17.9785 13.6133 17.334C14.2578 16.6895 14.7624 15.9408 15.127 15.0879C15.4915 14.235 15.6738 13.3203 15.6738 12.3438C15.6738 12.1289 15.752 11.9466 15.9082 11.7969C16.0645 11.6406 16.25 11.5625 16.4648 11.5625C16.6797 11.5625 16.862 11.6406 17.0117 11.7969C17.168 11.9466 17.2461 12.1289 17.2461 12.3438C17.2461 13.5417 17.0215 14.6615 16.5723 15.7031C16.1296 16.7448 15.5111 17.6628 14.7168 18.457C13.929 19.2448 13.0143 19.86 11.9727 20.3027C10.931 20.752 9.81445 20.9766 8.62305 20.9766ZM11.2695 4.90234L7.71484 1.36719C7.63672 1.28906 7.58138 1.20117 7.54883 1.10352C7.51628 1.00586 7.5 0.904948 7.5 0.800781C7.5 0.579427 7.57161 0.390625 7.71484 0.234375C7.86458 0.078125 8.04688 0 8.26172 0C8.48307 0 8.67513 0.0813802 8.83789 0.244141L12.8516 4.32617C13.0208 4.48893 13.1055 4.68424 13.1055 4.91211C13.1055 5.02279 13.0859 5.12695 13.0469 5.22461C13.0078 5.32227 12.9427 5.41341 12.8516 5.49805L8.82812 9.54102C8.67188 9.69076 8.48307 9.76562 8.26172 9.76562C8.04688 9.76562 7.86458 9.69076 7.71484 9.54102C7.57161 9.39128 7.5 9.20247 7.5 8.97461C7.5 8.87695 7.51628 8.7793 7.54883 8.68164C7.58138 8.58398 7.63997 8.49935 7.72461 8.42773L11.2695 4.90234Z" fill="black"/>
</svg>
