<svg width="27" height="24" viewBox="0 0 27 24" fill="none" xmlns="http://www.w3.org/2000/svg">
<path d="M5.73047 2.98828L6.25781 4.42969C4.82031 5.35938 3.67578 6.62891 2.82422 8.23828C1.97266 9.84766 1.52344 11.7031 1.47656 13.8047C1.46875 14.0156 1.39844 14.1914 1.26562 14.332C1.13281 14.4727 0.964844 14.5469 0.761719 14.5547C0.558594 14.5625 0.378906 14.4883 0.222656 14.332C0.0742188 14.1758 0 13.9922 0 13.7812C0 12.1797 0.238281 10.6914 0.714844 9.31641C1.19141 7.94141 1.85938 6.71875 2.71875 5.64844C3.57812 4.57031 4.58203 3.68359 5.73047 2.98828ZM20.6953 22.3359C18.75 23.0469 16.9102 23.125 15.1758 22.5703C13.4492 22.0234 11.8438 20.8477 10.3594 19.043L6.43359 14.3086C6.30078 14.1367 6.17969 13.957 6.07031 13.7695C5.96094 13.5742 5.87891 13.3906 5.82422 13.2188C5.59766 12.6172 5.625 12.0781 5.90625 11.6016C6.19531 11.125 6.60938 10.7891 7.14844 10.5938C7.53906 10.4531 7.92969 10.4414 8.32031 10.5586C8.71094 10.668 9.07812 10.9023 9.42188 11.2617L10.793 12.75C10.832 12.7969 10.8711 12.8125 10.9102 12.7969C10.9727 12.7812 10.9883 12.7383 10.957 12.668L7.61719 3.48047C7.36719 2.78516 7.375 2.15234 7.64062 1.58203C7.90625 1.00391 8.36719 0.59375 9.02344 0.351562C9.67188 0.117188 10.2812 0.136719 10.8516 0.410156C11.4219 0.675781 11.832 1.16016 12.082 1.86328L13.418 5.51953C13.6445 5.35547 13.8906 5.22266 14.1562 5.12109C14.6328 4.94922 15.0898 4.92969 15.5273 5.0625C15.9727 5.1875 16.3477 5.44531 16.6523 5.83594C16.9336 5.60938 17.2344 5.4375 17.5547 5.32031C18.0078 5.15625 18.4375 5.13281 18.8438 5.25C19.25 5.35938 19.5898 5.59375 19.8633 5.95312C20.8945 5.59375 21.8242 5.66406 22.6523 6.16406C23.4805 6.66406 24.125 7.55078 24.5859 8.82422L25.4531 11.2266C26.0781 12.9453 26.2891 14.543 26.0859 16.0195C25.8906 17.4883 25.332 18.7695 24.4102 19.8633C23.4883 20.9492 22.25 21.7734 20.6953 22.3359ZM20.1914 20.8008C21.4961 20.332 22.5156 19.6562 23.25 18.7734C23.9922 17.8906 24.4258 16.8398 24.5508 15.6211C24.6836 14.4023 24.4805 13.0547 23.9414 11.5781L23.2148 9.57422C22.8945 8.69922 22.5117 8.07031 22.0664 7.6875C21.6211 7.29688 21.1562 7.19141 20.6719 7.37109L21.1289 8.63672C21.1992 8.83984 21.1875 9.03125 21.0938 9.21094C21 9.38281 20.8633 9.5 20.6836 9.5625C20.4961 9.63281 20.3086 9.63281 20.1211 9.5625C19.9336 9.48438 19.8047 9.34375 19.7344 9.14062L19.1016 7.42969C19 7.14062 18.8398 6.94141 18.6211 6.83203C18.4023 6.71484 18.1562 6.70703 17.8828 6.80859C17.6562 6.89453 17.457 7.02344 17.2852 7.19531L18.0352 9.28125C18.1133 9.48438 18.1055 9.67578 18.0117 9.85547C17.918 10.0273 17.7812 10.1445 17.6016 10.207C17.4141 10.2773 17.2227 10.2773 17.0273 10.207C16.8398 10.1289 16.7109 9.98828 16.6406 9.78516L15.7031 7.23047C15.6016 6.94141 15.4414 6.74219 15.2227 6.63281C15.0039 6.51562 14.7578 6.50781 14.4844 6.60938C14.2578 6.69531 14.0586 6.82422 13.8867 6.99609L14.9531 9.9375C15.0234 10.125 15.0117 10.3086 14.918 10.4883C14.832 10.668 14.6953 10.793 14.5078 10.8633C14.3125 10.9336 14.1211 10.9297 13.9336 10.8516C13.7461 10.7734 13.6172 10.6367 13.5469 10.4414L10.582 2.29688C10.4961 2.0625 10.3555 1.89844 10.1602 1.80469C9.97266 1.70312 9.76562 1.69141 9.53906 1.76953C9.3125 1.85547 9.15234 2 9.05859 2.20312C8.96484 2.39844 8.96094 2.61328 9.04688 2.84766L13.207 14.2617C13.293 14.5195 13.293 14.7578 13.207 14.9766C13.1211 15.1875 12.9648 15.3359 12.7383 15.4219C12.5352 15.4922 12.332 15.5078 12.1289 15.4688C11.9258 15.4219 11.7148 15.2812 11.4961 15.0469L8.77734 12.2461C8.46484 11.9102 8.14062 11.8008 7.80469 11.918C7.58594 12.0039 7.43359 12.1406 7.34766 12.3281C7.26953 12.5156 7.26562 12.7031 7.33594 12.8906C7.39844 13.0547 7.48828 13.2109 7.60547 13.3594L11.5312 18.082C12.8906 19.7227 14.2891 20.7266 15.7266 21.0938C17.1719 21.4609 18.6602 21.3633 20.1914 20.8008Z" fill="black"/>
</svg>
