<svg width="34" height="34" viewBox="0 0 34 34" fill="none" xmlns="http://www.w3.org/2000/svg">
<g clip-path="url(#clip0_196_138)">
<path d="M9.65234 9.04297L10.1797 10.4844C8.74219 11.4141 7.59766 12.6836 6.74609 14.293C5.89453 15.9023 5.44531 17.7578 5.39844 19.8594C5.39062 20.0703 5.32031 20.2461 5.1875 20.3867C5.05469 20.5273 4.88672 20.6016 4.68359 20.6094C4.48047 20.6172 4.30078 20.543 4.14453 20.3867C3.99609 20.2305 3.92188 20.0469 3.92188 19.8359C3.92188 18.2344 4.16016 16.7461 4.63672 15.3711C5.11328 13.9961 5.78125 12.7734 6.64062 11.7031C7.5 10.625 8.50391 9.73828 9.65234 9.04297ZM24.6172 28.3906C22.6719 29.1016 20.832 29.1797 19.0977 28.625C17.3711 28.0781 15.7656 26.9023 14.2812 25.0977L10.3555 20.3633C10.2227 20.1914 10.1016 20.0117 9.99219 19.8242C9.88281 19.6289 9.80078 19.4453 9.74609 19.2734C9.51953 18.6719 9.54688 18.1328 9.82812 17.6562C10.1172 17.1797 10.5312 16.8438 11.0703 16.6484C11.4609 16.5078 11.8516 16.4961 12.2422 16.6133C12.6328 16.7227 13 16.957 13.3438 17.3164L14.7148 18.8047C14.7539 18.8516 14.793 18.8672 14.832 18.8516C14.8945 18.8359 14.9102 18.793 14.8789 18.7227L11.5391 9.53516C11.2891 8.83984 11.2969 8.20703 11.5625 7.63672C11.8281 7.05859 12.2891 6.64844 12.9453 6.40625C13.5938 6.17188 14.2031 6.19141 14.7734 6.46484C15.3438 6.73047 15.7539 7.21484 16.0039 7.91797L17.3398 11.5742C17.5664 11.4102 17.8125 11.2773 18.0781 11.1758C18.5547 11.0039 19.0117 10.9844 19.4492 11.1172C19.8945 11.2422 20.2695 11.5 20.5742 11.8906C20.8555 11.6641 21.1562 11.4922 21.4766 11.375C21.9297 11.2109 22.3594 11.1875 22.7656 11.3047C23.1719 11.4141 23.5117 11.6484 23.7852 12.0078C24.8164 11.6484 25.7461 11.7188 26.5742 12.2188C27.4023 12.7188 28.0469 13.6055 28.5078 14.8789L29.375 17.2812C30 19 30.2109 20.5977 30.0078 22.0742C29.8125 23.543 29.2539 24.8242 28.332 25.918C27.4102 27.0039 26.1719 27.8281 24.6172 28.3906ZM24.1133 26.8555C25.418 26.3867 26.4375 25.7109 27.1719 24.8281C27.9141 23.9453 28.3477 22.8945 28.4727 21.6758C28.6055 20.457 28.4023 19.1094 27.8633 17.6328L27.1367 15.6289C26.8164 14.7539 26.4336 14.125 25.9883 13.7422C25.543 13.3516 25.0781 13.2461 24.5938 13.4258L25.0508 14.6914C25.1211 14.8945 25.1094 15.0859 25.0156 15.2656C24.9219 15.4375 24.7852 15.5547 24.6055 15.6172C24.418 15.6875 24.2305 15.6875 24.043 15.6172C23.8555 15.5391 23.7266 15.3984 23.6562 15.1953L23.0234 13.4844C22.9219 13.1953 22.7617 12.9961 22.543 12.8867C22.3242 12.7695 22.0781 12.7617 21.8047 12.8633C21.5781 12.9492 21.3789 13.0781 21.207 13.25L21.957 15.3359C22.0352 15.5391 22.0273 15.7305 21.9336 15.9102C21.8398 16.082 21.7031 16.1992 21.5234 16.2617C21.3359 16.332 21.1445 16.332 20.9492 16.2617C20.7617 16.1836 20.6328 16.043 20.5625 15.8398L19.625 13.2852C19.5234 12.9961 19.3633 12.7969 19.1445 12.6875C18.9258 12.5703 18.6797 12.5625 18.4062 12.6641C18.1797 12.75 17.9805 12.8789 17.8086 13.0508L18.875 15.9922C18.9453 16.1797 18.9336 16.3633 18.8398 16.543C18.7539 16.7227 18.6172 16.8477 18.4297 16.918C18.2344 16.9883 18.043 16.9844 17.8555 16.9062C17.668 16.8281 17.5391 16.6914 17.4688 16.4961L14.5039 8.35156C14.418 8.11719 14.2773 7.95312 14.082 7.85938C13.8945 7.75781 13.6875 7.74609 13.4609 7.82422C13.2344 7.91016 13.0742 8.05469 12.9805 8.25781C12.8867 8.45312 12.8828 8.66797 12.9688 8.90234L17.1289 20.3164C17.2148 20.5742 17.2148 20.8125 17.1289 21.0312C17.043 21.2422 16.8867 21.3906 16.6602 21.4766C16.457 21.5469 16.2539 21.5625 16.0508 21.5234C15.8477 21.4766 15.6367 21.3359 15.418 21.1016L12.6992 18.3008C12.3867 17.9648 12.0625 17.8555 11.7266 17.9727C11.5078 18.0586 11.3555 18.1953 11.2695 18.3828C11.1914 18.5703 11.1875 18.7578 11.2578 18.9453C11.3203 19.1094 11.4102 19.2656 11.5273 19.4141L15.4531 24.1367C16.8125 25.7773 18.2109 26.7812 19.6484 27.1484C21.0938 27.5156 22.582 27.418 24.1133 26.8555Z" fill="black"/>
</g>
<defs>
<clipPath id="clip0_196_138">
<rect width="34" height="34" fill="white"/>
</clipPath>
</defs>
</svg>
