<svg width="28" height="32" viewBox="0 0 28 32" fill="none" xmlns="http://www.w3.org/2000/svg">
<path d="M5.25 10.5117C5.25 10.7227 5.17188 10.9062 5.01562 11.0625C4.86719 11.2109 4.6875 11.2852 4.47656 11.2852H0.773438C0.554688 11.2852 0.371094 11.2109 0.222656 11.0625C0.0742188 10.9062 0 10.7227 0 10.5117C0 10.3008 0.0742188 10.1211 0.222656 9.97266C0.371094 9.82422 0.554688 9.75 0.773438 9.75H4.47656C4.6875 9.75 4.86719 9.82422 5.01562 9.97266C5.17188 10.1211 5.25 10.3008 5.25 10.5117ZM6.76172 6.80859C6.61328 6.94922 6.43359 7.02344 6.22266 7.03125C6.01172 7.03125 5.82812 6.95703 5.67188 6.80859L3.05859 4.16016C2.91016 4.01172 2.83594 3.83203 2.83594 3.62109C2.84375 3.41016 2.91797 3.22656 3.05859 3.07031C3.21484 2.92969 3.39453 2.85938 3.59766 2.85938C3.80859 2.85938 3.99219 2.92969 4.14844 3.07031L6.76172 5.71875C6.91797 5.86719 6.99219 6.04688 6.98438 6.25781C6.98438 6.46875 6.91016 6.65234 6.76172 6.80859ZM10.5234 5.25C10.3125 5.25 10.1289 5.17578 9.97266 5.02734C9.82422 4.87109 9.75 4.6875 9.75 4.47656L9.76172 0.761719C9.76172 0.550781 9.83594 0.371094 9.98438 0.222656C10.1328 0.0742188 10.3125 0 10.5234 0C10.7344 0 10.9141 0.0742188 11.0625 0.222656C11.2188 0.371094 11.2969 0.550781 11.2969 0.761719L11.2852 4.47656C11.2852 4.6875 11.2109 4.87109 11.0625 5.02734C10.9141 5.17578 10.7344 5.25 10.5234 5.25ZM14.2852 6.80859C14.1367 6.65234 14.0586 6.46875 14.0508 6.25781C14.0508 6.04688 14.1289 5.86719 14.2852 5.71875L16.8984 3.08203C17.0547 2.93359 17.2344 2.86328 17.4375 2.87109C17.6484 2.87109 17.832 2.94141 17.9883 3.08203C18.1367 3.23828 18.2109 3.42188 18.2109 3.63281C18.2188 3.84375 18.1445 4.02344 17.9883 4.17188L15.3633 6.80859C15.2148 6.95703 15.0352 7.03125 14.8242 7.03125C14.6133 7.02344 14.4336 6.94922 14.2852 6.80859ZM21.4688 29.9883C19.5234 30.6992 17.6836 30.7773 15.9492 30.2227C14.2227 29.668 12.6172 28.4922 11.1328 26.6953L7.20703 21.9492C7.07422 21.7852 6.94922 21.6094 6.83203 21.4219C6.72266 21.2266 6.64062 21.043 6.58594 20.8711C6.36719 20.2617 6.39844 19.7227 6.67969 19.2539C6.96875 18.7773 7.37891 18.4453 7.91016 18.2578C8.30859 18.1172 8.70312 18.1016 9.09375 18.2109C9.48438 18.3125 9.85156 18.5469 10.1953 18.9141L11.5664 20.4023C11.5977 20.4492 11.6367 20.4648 11.6836 20.4492C11.7383 20.4258 11.7578 20.3828 11.7422 20.3203L8.39062 11.1328C8.14062 10.4375 8.14453 9.80469 8.40234 9.23438C8.66797 8.65625 9.12891 8.24609 9.78516 8.00391C10.4414 7.76953 11.0547 7.78906 11.625 8.0625C12.1953 8.32812 12.6055 8.8125 12.8555 9.51562L14.1914 13.1719C14.4414 12.9922 14.6875 12.8594 14.9297 12.7734C15.4062 12.5938 15.8633 12.5703 16.3008 12.7031C16.7461 12.8359 17.1172 13.0977 17.4141 13.4883C17.7031 13.2617 18.0078 13.0898 18.3281 12.9727C18.7891 12.8086 19.2188 12.7852 19.6172 12.9023C20.0234 13.0117 20.3633 13.2461 20.6367 13.6055C21.6602 13.2461 22.5859 13.3164 23.4141 13.8164C24.2422 14.3164 24.8906 15.1992 25.3594 16.4648L26.2383 18.8789C26.8555 20.5977 27.0625 22.1953 26.8594 23.6719C26.6641 25.1406 26.1016 26.418 25.1719 27.5039C24.25 28.5977 23.0156 29.4258 21.4688 29.9883ZM20.9648 28.4531C22.2695 27.9766 23.2891 27.2969 24.0234 26.4141C24.7656 25.5312 25.1992 24.4844 25.3242 23.2734C25.4492 22.0547 25.2422 20.707 24.7031 19.2305L23.9766 17.2266C23.6562 16.3516 23.2734 15.7227 22.8281 15.3398C22.3906 14.9492 21.9297 14.8438 21.4453 15.0234L21.9023 16.2891C21.9727 16.4922 21.9609 16.6836 21.8672 16.8633C21.7734 17.0352 21.6367 17.1523 21.457 17.2148C21.2695 17.2852 21.082 17.2852 20.8945 17.2148C20.707 17.1367 20.5781 17 20.5078 16.8047L19.875 15.0703C19.7734 14.7812 19.6133 14.582 19.3945 14.4727C19.1758 14.3633 18.9258 14.3594 18.6445 14.4609C18.4102 14.5547 18.2109 14.6836 18.0469 14.8477L18.8086 16.9336C18.8789 17.1367 18.8672 17.3281 18.7734 17.5078C18.6875 17.6797 18.5508 17.8008 18.3633 17.8711C18.1758 17.9336 17.9883 17.9297 17.8008 17.8594C17.6133 17.7812 17.4805 17.6406 17.4023 17.4375L16.4766 14.8828C16.375 14.5938 16.2148 14.3945 15.9961 14.2852C15.7773 14.1758 15.5312 14.1719 15.2578 14.2734C15.1484 14.3047 15.0391 14.3555 14.9297 14.4258C14.8203 14.4961 14.7266 14.5703 14.6484 14.6484L15.7266 17.5781C15.7969 17.7734 15.7852 17.9609 15.6914 18.1406C15.6055 18.3125 15.4688 18.4336 15.2812 18.5039C15.0859 18.5742 14.8945 18.5703 14.707 18.4922C14.5195 18.4141 14.3906 18.2812 14.3203 18.0938L11.3555 9.94922C11.2695 9.70703 11.1289 9.53906 10.9336 9.44531C10.7461 9.35156 10.5391 9.34375 10.3125 9.42188C10.0781 9.50781 9.91406 9.65234 9.82031 9.85547C9.73438 10.0508 9.73438 10.2656 9.82031 10.5L13.9805 21.9141C14.0664 22.1719 14.0664 22.4102 13.9805 22.6289C13.8945 22.8398 13.7344 22.9883 13.5 23.0742C13.3047 23.1445 13.1055 23.1562 12.9023 23.1094C12.6992 23.0625 12.4844 22.9219 12.2578 22.6875L9.53906 19.8984C9.22656 19.5547 8.91016 19.4453 8.58984 19.5703C8.35547 19.6562 8.19922 19.793 8.12109 19.9805C8.04297 20.168 8.03906 20.3555 8.10938 20.543C8.16406 20.7148 8.25391 20.8711 8.37891 21.0117L12.3047 25.7344C13.6562 27.3672 15.0508 28.3672 16.4883 28.7344C17.9336 29.1094 19.4258 29.0156 20.9648 28.4531Z" fill="black"/>
</svg>
