<svg width="28" height="30" viewBox="0 0 28 30" fill="none" xmlns="http://www.w3.org/2000/svg">
<path d="M5.25 8.99609C5.25 9.20703 5.17188 9.39062 5.01562 9.54688C4.86719 9.69531 4.6875 9.76953 4.47656 9.76953H0.773438C0.554688 9.76953 0.371094 9.69531 0.222656 9.54688C0.0742188 9.39062 0 9.20703 0 8.99609C0 8.78516 0.0742188 8.60547 0.222656 8.45703C0.371094 8.30859 0.554688 8.23438 0.773438 8.23438H4.47656C4.6875 8.23438 4.86719 8.30859 5.01562 8.45703C5.17188 8.60547 5.25 8.78516 5.25 8.99609ZM6.76172 5.29297C6.61328 5.43359 6.43359 5.50781 6.22266 5.51562C6.01172 5.51562 5.82812 5.44141 5.67188 5.29297L3.05859 2.64453C2.91016 2.49609 2.83594 2.31641 2.83594 2.10547C2.84375 1.89453 2.91797 1.71094 3.05859 1.55469C3.21484 1.41406 3.39453 1.34375 3.59766 1.34375C3.80859 1.34375 3.99219 1.41406 4.14844 1.55469L6.76172 4.20312C6.91797 4.35156 6.99219 4.53125 6.98438 4.74219C6.98438 4.95312 6.91016 5.13672 6.76172 5.29297ZM10.5234 3.73438C10.3125 3.73438 10.1289 3.66016 9.97266 3.51172C9.82422 3.35547 9.75 3.17188 9.75 2.96094L9.76172 -0.753906C9.76172 -0.964844 9.83594 -1.14453 9.98438 -1.29297C10.1328 -1.44141 10.3125 -1.51562 10.5234 -1.51562C10.7344 -1.51562 10.9141 -1.44141 11.0625 -1.29297C11.2188 -1.14453 11.2969 -0.964844 11.2969 -0.753906L11.2852 2.96094C11.2852 3.17188 11.2109 3.35547 11.0625 3.51172C10.9141 3.66016 10.7344 3.73438 10.5234 3.73438ZM14.2852 5.29297C14.1367 5.13672 14.0586 4.95312 14.0508 4.74219C14.0508 4.53125 14.1289 4.35156 14.2852 4.20312L16.8984 1.56641C17.0547 1.41797 17.2344 1.34766 17.4375 1.35547C17.6484 1.35547 17.832 1.42578 17.9883 1.56641C18.1367 1.72266 18.2109 1.90625 18.2109 2.11719C18.2188 2.32812 18.1445 2.50781 17.9883 2.65625L15.3633 5.29297C15.2148 5.44141 15.0352 5.51562 14.8242 5.51562C14.6133 5.50781 14.4336 5.43359 14.2852 5.29297ZM21.4688 28.4727C19.5234 29.1836 17.6836 29.2617 15.9492 28.707C14.2227 28.1523 12.6172 26.9766 11.1328 25.1797L7.20703 20.4336C7.07422 20.2695 6.94922 20.0938 6.83203 19.9062C6.72266 19.7109 6.64062 19.5273 6.58594 19.3555C6.36719 18.7461 6.39844 18.207 6.67969 17.7383C6.96875 17.2617 7.37891 16.9297 7.91016 16.7422C8.30859 16.6016 8.70312 16.5859 9.09375 16.6953C9.48438 16.7969 9.85156 17.0312 10.1953 17.3984L11.5664 18.8867C11.5977 18.9336 11.6367 18.9492 11.6836 18.9336C11.7383 18.9102 11.7578 18.8672 11.7422 18.8047L8.39062 9.61719C8.14062 8.92188 8.14453 8.28906 8.40234 7.71875C8.66797 7.14063 9.12891 6.73047 9.78516 6.48828C10.4414 6.25391 11.0547 6.27344 11.625 6.54688C12.1953 6.8125 12.6055 7.29688 12.8555 8L14.1914 11.6562C14.4414 11.4766 14.6875 11.3438 14.9297 11.2578C15.4062 11.0781 15.8633 11.0547 16.3008 11.1875C16.7461 11.3203 17.1172 11.582 17.4141 11.9727C17.7031 11.7461 18.0078 11.5742 18.3281 11.457C18.7891 11.293 19.2188 11.2695 19.6172 11.3867C20.0234 11.4961 20.3633 11.7305 20.6367 12.0898C21.6602 11.7305 22.5859 11.8008 23.4141 12.3008C24.2422 12.8008 24.8906 13.6836 25.3594 14.9492L26.2383 17.3633C26.8555 19.082 27.0625 20.6797 26.8594 22.1562C26.6641 23.625 26.1016 24.9023 25.1719 25.9883C24.25 27.082 23.0156 27.9102 21.4688 28.4727ZM20.9648 26.9375C22.2695 26.4609 23.2891 25.7812 24.0234 24.8984C24.7656 24.0156 25.1992 22.9688 25.3242 21.7578C25.4492 20.5391 25.2422 19.1914 24.7031 17.7148L23.9766 15.7109C23.6562 14.8359 23.2734 14.207 22.8281 13.8242C22.3906 13.4336 21.9297 13.3281 21.4453 13.5078L21.9023 14.7734C21.9727 14.9766 21.9609 15.168 21.8672 15.3477C21.7734 15.5195 21.6367 15.6367 21.457 15.6992C21.2695 15.7695 21.082 15.7695 20.8945 15.6992C20.707 15.6211 20.5781 15.4844 20.5078 15.2891L19.875 13.5547C19.7734 13.2656 19.6133 13.0664 19.3945 12.957C19.1758 12.8477 18.9258 12.8438 18.6445 12.9453C18.4102 13.0391 18.2109 13.168 18.0469 13.332L18.8086 15.418C18.8789 15.6211 18.8672 15.8125 18.7734 15.9922C18.6875 16.1641 18.5508 16.2852 18.3633 16.3555C18.1758 16.418 17.9883 16.4141 17.8008 16.3438C17.6133 16.2656 17.4805 16.125 17.4023 15.9219L16.4766 13.3672C16.375 13.0781 16.2148 12.8789 15.9961 12.7695C15.7773 12.6602 15.5312 12.6562 15.2578 12.7578C15.1484 12.7891 15.0391 12.8398 14.9297 12.9102C14.8203 12.9805 14.7266 13.0547 14.6484 13.1328L15.7266 16.0625C15.7969 16.2578 15.7852 16.4453 15.6914 16.625C15.6055 16.7969 15.4688 16.918 15.2812 16.9883C15.0859 17.0586 14.8945 17.0547 14.707 16.9766C14.5195 16.8984 14.3906 16.7656 14.3203 16.5781L11.3555 8.43359C11.2695 8.19141 11.1289 8.02344 10.9336 7.92969C10.7461 7.83594 10.5391 7.82812 10.3125 7.90625C10.0781 7.99219 9.91406 8.13672 9.82031 8.33984C9.73438 8.53516 9.73438 8.75 9.82031 8.98438L13.9805 20.3984C14.0664 20.6562 14.0664 20.8945 13.9805 21.1133C13.8945 21.3242 13.7344 21.4727 13.5 21.5586C13.3047 21.6289 13.1055 21.6406 12.9023 21.5938C12.6992 21.5469 12.4844 21.4062 12.2578 21.1719L9.53906 18.3828C9.22656 18.0391 8.91016 17.9297 8.58984 18.0547C8.35547 18.1406 8.19922 18.2773 8.12109 18.4648C8.04297 18.6523 8.03906 18.8398 8.10938 19.0273C8.16406 19.1992 8.25391 19.3555 8.37891 19.4961L12.3047 24.2188C13.6562 25.8516 15.0508 26.8516 16.4883 27.2188C17.9336 27.5938 19.4258 27.5 20.9648 26.9375Z" fill="black"/>
</svg>
