<svg width="34" height="34" viewBox="0 0 34 34" fill="none" xmlns="http://www.w3.org/2000/svg">
<g clip-path="url(#clip0_196_137)">
<path d="M8.78516 8.99609C8.78516 9.20703 8.70703 9.39062 8.55078 9.54688C8.40234 9.69531 8.22266 9.76953 8.01172 9.76953H4.30859C4.08984 9.76953 3.90625 9.69531 3.75781 9.54688C3.60938 9.39062 3.53516 9.20703 3.53516 8.99609C3.53516 8.78516 3.60938 8.60547 3.75781 8.45703C3.90625 8.30859 4.08984 8.23438 4.30859 8.23438H8.01172C8.22266 8.23438 8.40234 8.30859 8.55078 8.45703C8.70703 8.60547 8.78516 8.78516 8.78516 8.99609ZM10.2969 5.29297C10.1484 5.43359 9.96875 5.50781 9.75781 5.51562C9.54688 5.51562 9.36328 5.44141 9.20703 5.29297L6.59375 2.64453C6.44531 2.49609 6.37109 2.31641 6.37109 2.10547C6.37891 1.89453 6.45312 1.71094 6.59375 1.55469C6.75 1.41406 6.92969 1.34375 7.13281 1.34375C7.34375 1.34375 7.52734 1.41406 7.68359 1.55469L10.2969 4.20312C10.4531 4.35156 10.5273 4.53125 10.5195 4.74219C10.5195 4.95312 10.4453 5.13672 10.2969 5.29297ZM14.0586 3.73438C13.8477 3.73438 13.6641 3.66016 13.5078 3.51172C13.3594 3.35547 13.2852 3.17188 13.2852 2.96094L13.2969 -0.753906C13.2969 -0.964844 13.3711 -1.14453 13.5195 -1.29297C13.668 -1.44141 13.8477 -1.51562 14.0586 -1.51562C14.2695 -1.51562 14.4492 -1.44141 14.5977 -1.29297C14.7539 -1.14453 14.832 -0.964844 14.832 -0.753906L14.8203 2.96094C14.8203 3.17188 14.7461 3.35547 14.5977 3.51172C14.4492 3.66016 14.2695 3.73438 14.0586 3.73438ZM17.8203 5.29297C17.6719 5.13672 17.5938 4.95312 17.5859 4.74219C17.5859 4.53125 17.6641 4.35156 17.8203 4.20312L20.4336 1.56641C20.5898 1.41797 20.7695 1.34766 20.9727 1.35547C21.1836 1.35547 21.3672 1.42578 21.5234 1.56641C21.6719 1.72266 21.7461 1.90625 21.7461 2.11719C21.7539 2.32812 21.6797 2.50781 21.5234 2.65625L18.8984 5.29297C18.75 5.44141 18.5703 5.51562 18.3594 5.51562C18.1484 5.50781 17.9688 5.43359 17.8203 5.29297ZM25.0039 28.4727C23.0586 29.1836 21.2188 29.2617 19.4844 28.707C17.7578 28.1523 16.1523 26.9766 14.668 25.1797L10.7422 20.4336C10.6094 20.2695 10.4844 20.0938 10.3672 19.9062C10.2578 19.7109 10.1758 19.5273 10.1211 19.3555C9.90234 18.7461 9.93359 18.207 10.2148 17.7383C10.5039 17.2617 10.9141 16.9297 11.4453 16.7422C11.8438 16.6016 12.2383 16.5859 12.6289 16.6953C13.0195 16.7969 13.3867 17.0312 13.7305 17.3984L15.1016 18.8867C15.1328 18.9336 15.1719 18.9492 15.2188 18.9336C15.2734 18.9102 15.293 18.8672 15.2773 18.8047L11.9258 9.61719C11.6758 8.92188 11.6797 8.28906 11.9375 7.71875C12.2031 7.14063 12.6641 6.73047 13.3203 6.48828C13.9766 6.25391 14.5898 6.27344 15.1602 6.54688C15.7305 6.8125 16.1406 7.29688 16.3906 8L17.7266 11.6562C17.9766 11.4766 18.2227 11.3438 18.4648 11.2578C18.9414 11.0781 19.3984 11.0547 19.8359 11.1875C20.2812 11.3203 20.6523 11.582 20.9492 11.9727C21.2383 11.7461 21.543 11.5742 21.8633 11.457C22.3242 11.293 22.7539 11.2695 23.1523 11.3867C23.5586 11.4961 23.8984 11.7305 24.1719 12.0898C25.1953 11.7305 26.1211 11.8008 26.9492 12.3008C27.7773 12.8008 28.4258 13.6836 28.8945 14.9492L29.7734 17.3633C30.3906 19.082 30.5977 20.6797 30.3945 22.1562C30.1992 23.625 29.6367 24.9023 28.707 25.9883C27.7852 27.082 26.5508 27.9102 25.0039 28.4727ZM24.5 26.9375C25.8047 26.4609 26.8242 25.7812 27.5586 24.8984C28.3008 24.0156 28.7344 22.9688 28.8594 21.7578C28.9844 20.5391 28.7773 19.1914 28.2383 17.7148L27.5117 15.7109C27.1914 14.8359 26.8086 14.207 26.3633 13.8242C25.9258 13.4336 25.4648 13.3281 24.9805 13.5078L25.4375 14.7734C25.5078 14.9766 25.4961 15.168 25.4023 15.3477C25.3086 15.5195 25.1719 15.6367 24.9922 15.6992C24.8047 15.7695 24.6172 15.7695 24.4297 15.6992C24.2422 15.6211 24.1133 15.4844 24.043 15.2891L23.4102 13.5547C23.3086 13.2656 23.1484 13.0664 22.9297 12.957C22.7109 12.8477 22.4609 12.8438 22.1797 12.9453C21.9453 13.0391 21.7461 13.168 21.582 13.332L22.3438 15.418C22.4141 15.6211 22.4023 15.8125 22.3086 15.9922C22.2227 16.1641 22.0859 16.2852 21.8984 16.3555C21.7109 16.418 21.5234 16.4141 21.3359 16.3438C21.1484 16.2656 21.0156 16.125 20.9375 15.9219L20.0117 13.3672C19.9102 13.0781 19.75 12.8789 19.5312 12.7695C19.3125 12.6602 19.0664 12.6562 18.793 12.7578C18.6836 12.7891 18.5742 12.8398 18.4648 12.9102C18.3555 12.9805 18.2617 13.0547 18.1836 13.1328L19.2617 16.0625C19.332 16.2578 19.3203 16.4453 19.2266 16.625C19.1406 16.7969 19.0039 16.918 18.8164 16.9883C18.6211 17.0586 18.4297 17.0547 18.2422 16.9766C18.0547 16.8984 17.9258 16.7656 17.8555 16.5781L14.8906 8.43359C14.8047 8.19141 14.6641 8.02344 14.4688 7.92969C14.2812 7.83594 14.0742 7.82812 13.8477 7.90625C13.6133 7.99219 13.4492 8.13672 13.3555 8.33984C13.2695 8.53516 13.2695 8.75 13.3555 8.98438L17.5156 20.3984C17.6016 20.6562 17.6016 20.8945 17.5156 21.1133C17.4297 21.3242 17.2695 21.4727 17.0352 21.5586C16.8398 21.6289 16.6406 21.6406 16.4375 21.5938C16.2344 21.5469 16.0195 21.4062 15.793 21.1719L13.0742 18.3828C12.7617 18.0391 12.4453 17.9297 12.125 18.0547C11.8906 18.1406 11.7344 18.2773 11.6562 18.4648C11.5781 18.6523 11.5742 18.8398 11.6445 19.0273C11.6992 19.1992 11.7891 19.3555 11.9141 19.4961L15.8398 24.2188C17.1914 25.8516 18.5859 26.8516 20.0234 27.2188C21.4688 27.5938 22.9609 27.5 24.5 26.9375Z" fill="black"/>
</g>
<defs>
<clipPath id="clip0_196_137">
<rect width="34" height="34" fill="white"/>
</clipPath>
</defs>
</svg>
